<svg xmlns="http://www.w3.org/2000/svg" width="22.98" height="22.98" viewBox="0 0 22.98 22.98">
  <g id="clock" transform="translate(0.5 0.5)">
    <path id="Path_17" data-name="Path 17" d="M10.99,21.98A10.99,10.99,0,1,1,21.98,10.99,11,11,0,0,1,10.99,21.98Zm0-20.607a9.616,9.616,0,1,0,9.616,9.616A9.627,9.627,0,0,0,10.99,1.374Zm0,0" fill="#c26046" stroke="#c26046" stroke-width="1"/>
    <path id="Path_18" data-name="Path 18" d="M244.021,111.474a.477.477,0,0,1-.355-.162l-3.518-3.872a.583.583,0,0,1-.147-.391v-5.163a.5.5,0,1,1,1.005,0v4.934l3.371,3.71a.593.593,0,0,1,0,.783A.477.477,0,0,1,244.021,111.474Zm0,0" transform="translate(-230.308 -96.11)" fill="#c26046" stroke="#c26046" stroke-width="1"/>
  </g>
</svg>
