<svg xmlns="http://www.w3.org/2000/svg" width="17.359" height="13.257" viewBox="0 0 17.359 13.257">
  <g id="mail" transform="translate(0 -60.5)">
    <g id="Group_4946" data-name="Group 4946" transform="translate(0 60.5)">
      <path id="Path_28" data-name="Path 28" d="M16.681,68.332a.678.678,0,0,0,.678-.678V63.212A2.715,2.715,0,0,0,14.647,60.5H2.712A2.715,2.715,0,0,0,0,63.212v7.832a2.715,2.715,0,0,0,2.712,2.712H14.647a2.715,2.715,0,0,0,2.712-2.712.678.678,0,0,0-1.356,0A1.358,1.358,0,0,1,14.647,72.4H2.712a1.358,1.358,0,0,1-1.356-1.356V63.356l5.891,3.663a2.7,2.7,0,0,0,2.865,0L16,63.356v4.3A.678.678,0,0,0,16.681,68.332ZM9.4,65.868a1.348,1.348,0,0,1-1.432,0L1.922,62.111a1.349,1.349,0,0,1,.79-.255H14.647a1.349,1.349,0,0,1,.79.255Z" transform="translate(0 -60.5)" fill="#c26046"/>
    </g>
  </g>
</svg>
