<svg xmlns="http://www.w3.org/2000/svg" width="14.967" height="18.5" viewBox="0 0 14.967 18.5">
  <g id="place" transform="translate(-48.886)">
    <g id="Group_4942" data-name="Group 4942" transform="translate(48.886)">
      <g id="Group_4941" data-name="Group 4941" transform="translate(0)">
        <path id="Path_26" data-name="Path 26" d="M62.51,3.217a7.47,7.47,0,0,0-12.281,0,7.471,7.471,0,0,0-.87,6.883,5.884,5.884,0,0,0,1.084,1.79l5.434,6.382a.646.646,0,0,0,.985,0l5.432-6.381A5.889,5.889,0,0,0,63.378,10.1,7.472,7.472,0,0,0,62.51,3.217Zm-.343,6.434a4.614,4.614,0,0,1-.853,1.4l0,0-4.941,5.8-4.944-5.807a4.617,4.617,0,0,1-.855-1.4,6.18,6.18,0,0,1,.722-5.694,6.176,6.176,0,0,1,10.153,0A6.181,6.181,0,0,1,62.167,9.651Z" transform="translate(-48.886)" fill="#c26046"/>
      </g>
    </g>
    <g id="Group_4944" data-name="Group 4944" transform="translate(52.747 3.838)">
      <g id="Group_4943" data-name="Group 4943" transform="translate(0)">
        <path id="Path_27" data-name="Path 27" d="M159.376,106.219A3.622,3.622,0,1,0,163,109.841,3.626,3.626,0,0,0,159.376,106.219Zm0,5.951a2.329,2.329,0,1,1,2.329-2.329A2.331,2.331,0,0,1,159.376,112.17Z" transform="translate(-155.754 -106.219)" fill="#c26046"/>
      </g>
    </g>
  </g>
</svg>
