<svg id="gear" xmlns="http://www.w3.org/2000/svg" width="21.877" height="24.781" viewBox="0 0 21.877 24.781">
  <g id="Group_4953" data-name="Group 4953" transform="translate(4.404 5.856)">
    <g id="Group_4952" data-name="Group 4952" transform="translate(0)">
      <path id="Path_31" data-name="Path 31" d="M133.757,126.215a5.482,5.482,0,0,0-.5-.3c-.084-.044-.165-.084-.243-.118l-.376-.908c.032-.079.061-.165.089-.255a5.482,5.482,0,0,0,.144-.569.726.726,0,0,0-.2-.642l-1.021-1.021a.726.726,0,0,0-.642-.2,5.486,5.486,0,0,0-.569.144c-.091.028-.176.057-.255.089l-.908-.376c-.034-.078-.074-.159-.118-.243a5.453,5.453,0,0,0-.3-.5.726.726,0,0,0-.6-.312h-1.444a.726.726,0,0,0-.6.312,5.481,5.481,0,0,0-.3.5c-.044.084-.084.165-.118.243l-.908.376c-.079-.032-.165-.061-.255-.089a5.485,5.485,0,0,0-.569-.144.726.726,0,0,0-.642.2l-1.021,1.021a.726.726,0,0,0-.2.642,5.488,5.488,0,0,0,.144.569c.028.091.057.176.089.255l-.376.908c-.079.034-.159.074-.243.118a5.463,5.463,0,0,0-.5.3.726.726,0,0,0-.312.6v1.444a.726.726,0,0,0,.312.6,5.481,5.481,0,0,0,.5.3c.084.044.165.084.243.118l.376.907c-.032.079-.061.165-.089.255a5.488,5.488,0,0,0-.144.569.726.726,0,0,0,.2.642l1.021,1.021a.726.726,0,0,0,.642.2,5.494,5.494,0,0,0,.569-.144c.091-.028.176-.057.255-.089l.908.376c.034.078.074.159.118.243a5.461,5.461,0,0,0,.3.5.726.726,0,0,0,.6.312h1.444a.726.726,0,0,0,.6-.312,5.478,5.478,0,0,0,.3-.5c.044-.084.084-.165.118-.243l.908-.376c.079.032.165.061.255.089a5.5,5.5,0,0,0,.569.144.726.726,0,0,0,.642-.2l1.021-1.021a.726.726,0,0,0,.2-.642,5.484,5.484,0,0,0-.144-.569c-.028-.091-.057-.176-.089-.255l.376-.907c.079-.034.159-.074.243-.118a5.46,5.46,0,0,0,.5-.3.726.726,0,0,0,.311-.6v-1.444A.726.726,0,0,0,133.757,126.215Zm-1.141,1.63c-.074.04-.143.075-.192.1a.726.726,0,0,0-.621.447l-.647,1.561a.726.726,0,0,0,.123.755c.02.049.045.123.069.2l-.441.441c-.08-.024-.155-.048-.2-.069a.726.726,0,0,0-.755-.123l-1.561.647a.726.726,0,0,0-.447.621c-.02.049-.055.119-.1.192h-.624c-.04-.074-.075-.144-.1-.192a.726.726,0,0,0-.447-.621l-1.561-.647a.726.726,0,0,0-.755.123c-.049.02-.123.045-.2.069l-.441-.441c.024-.08.048-.155.069-.2a.726.726,0,0,0,.123-.755l-.647-1.561a.726.726,0,0,0-.621-.447c-.049-.02-.119-.055-.192-.1v-.624c.074-.04.144-.075.192-.1a.726.726,0,0,0,.621-.447l.647-1.561a.726.726,0,0,0-.123-.755c-.02-.049-.045-.123-.069-.2l.441-.441c.08.024.155.048.2.069a.726.726,0,0,0,.755.123l1.561-.647a.726.726,0,0,0,.447-.621c.02-.049.055-.119.1-.192h.624c.04.074.075.144.1.192a.726.726,0,0,0,.447.621l1.561.647a.726.726,0,0,0,.755-.123c.049-.02.123-.045.2-.069l.441.441c-.024.08-.048.155-.069.2a.726.726,0,0,0-.123.755l.647,1.561a.726.726,0,0,0,.621.447c.049.02.119.055.192.1Z" transform="translate(-121 -120.999)" fill="#c26046"/>
    </g>
  </g>
  <g id="Group_4955" data-name="Group 4955" transform="translate(0)">
    <g id="Group_4954" data-name="Group 4954">
      <path id="Path_32" data-name="Path 32" d="M40.938,0a2.182,2.182,0,0,0-2.115,1.657A10.941,10.941,0,0,0,30,12.39a.726.726,0,0,0,1.452,0A9.491,9.491,0,0,1,38.97,3.109,2.178,2.178,0,1,0,40.938,0Zm0,2.9a.726.726,0,1,1,.726-.726A.727.727,0,0,1,40.938,2.9Z" transform="translate(-30)" fill="#c26046"/>
    </g>
  </g>
  <g id="Group_4957" data-name="Group 4957" transform="translate(8.034 9.486)">
    <g id="Group_4956" data-name="Group 4956" transform="translate(0)">
      <path id="Path_33" data-name="Path 33" d="M198.9,196a2.9,2.9,0,1,0,2.9,2.9A2.907,2.907,0,0,0,198.9,196Zm0,4.356a1.452,1.452,0,1,1,1.452-1.452A1.454,1.454,0,0,1,198.9,200.356Z" transform="translate(-196 -196)" fill="#c26046"/>
    </g>
  </g>
  <g id="Group_4959" data-name="Group 4959" transform="translate(8.76 11.664)">
    <g id="Group_4958" data-name="Group 4958" transform="translate(0)">
      <path id="Path_34" data-name="Path 34" d="M223.391,241a.726.726,0,0,0-.726.726,9.49,9.49,0,0,1-7.518,9.282,2.178,2.178,0,1,0,.146,1.451,10.941,10.941,0,0,0,8.824-10.733A.726.726,0,0,0,223.391,241Zm-10.212,11.664a.726.726,0,1,1,.726-.726A.727.727,0,0,1,213.178,252.664Z" transform="translate(-211 -241)" fill="#c26046"/>
    </g>
  </g>
</svg>
