<svg id="graph" xmlns="http://www.w3.org/2000/svg" width="24.447" height="22.007" viewBox="0 0 24.447 22.007">
  <g id="Group_4951" data-name="Group 4951">
    <path id="Path_29" data-name="Path 29" d="M22.007,25.55a2.438,2.438,0,0,0-1.757,4.136l-4.465,8.936a2.006,2.006,0,0,0-.3-.029,2.439,2.439,0,0,0-.922.181l-3.467-3.9A2.44,2.44,0,1,0,6.524,33.7a2.426,2.426,0,0,0,.6,1.586L2.88,42.709a2.235,2.235,0,0,0-.435-.043,2.479,2.479,0,1,0,1.843.86L8.53,36.1a2.3,2.3,0,0,0,1.352-.138l3.467,3.9a2.443,2.443,0,1,0,3.892-.516l4.465-8.936a2.007,2.007,0,0,0,.3.029,2.445,2.445,0,0,0,0-4.89Z" transform="translate(0 -25.55)" fill="#c26046"/>
  </g>
</svg>
