<svg xmlns="http://www.w3.org/2000/svg" width="14" height="14" viewBox="0 0 14 14">
  <g id="Group_4865" data-name="Group 4865" transform="translate(-564 -16)">
    <rect id="Rectangle_2058" data-name="Rectangle 2058" width="14" height="14" transform="translate(564 16)" fill="#584c48" opacity="0"/>
    <g id="yelp_1_" data-name="yelp (1)" transform="translate(566 16)">
      <path id="Path_7" data-name="Path 7" d="M9.737,17.228a.605.605,0,0,0-1.056-.387c-.7.846-2.017,2.384-2.092,2.573-.2.577.739.946,1.335,1.169a3.121,3.121,0,0,0,1.381.294.484.484,0,0,0,.387-.308C9.743,20.428,9.738,17.355,9.737,17.228Z" transform="translate(-4.505 -7.03)" fill="#584c48"/>
      <path id="Path_8" data-name="Path 8" d="M8.726.371A.47.47,0,0,0,8.352.024a6.255,6.255,0,0,0-3.29.938.494.494,0,0,0-.143.478L7.8,6.059c.588.94,1.327.658,1.278-.393h0C9.037,4.974,8.761.6,8.726.371Z" transform="translate(-3.805 0)" fill="#584c48"/>
      <path id="Path_9" data-name="Path 9" d="M6.7,13.5a.629.629,0,0,0,.04-1.152c-1.235-.509-2.922-1.221-3.052-1.221-.506-.03-.6.693-.655,1.21a6.414,6.414,0,0,0-.008,1.287c.038.412.128.833.539.857.178,0,3.108-.973,3.135-.982Z" transform="translate(-3.001 -4.702)" fill="#584c48"/>
      <path id="Path_10" data-name="Path 10" d="M17.638,9.95a.515.515,0,0,0,.2-.484A4.8,4.8,0,0,0,16.284,7.14a.468.468,0,0,0-.5.017c-.186.126-1.871,2.566-1.971,2.667a.623.623,0,0,0,.631.952l-.008.017C14.638,10.725,17.486,10.051,17.638,9.95Z" transform="translate(-7.526 -2.991)" fill="#584c48"/>
      <path id="Path_11" data-name="Path 11" d="M14.748,15.563a.621.621,0,0,0-.693.913c.084.143,1.622,2.717,1.757,2.812a.448.448,0,0,0,.479.055,4.721,4.721,0,0,0,1.728-2.227.47.47,0,0,0-.165-.47C17.74,16.545,14.748,15.563,14.748,15.563Z" transform="translate(-7.634 -6.564)" fill="#584c48"/>
    </g>
  </g>
</svg>
