<svg xmlns="http://www.w3.org/2000/svg" width="18.363" height="13.27" viewBox="0 0 18.363 13.27">
  <path id="youtube" d="M9.179,13.77h0a48.67,48.67,0,0,1-6.84-.424,2.838,2.838,0,0,1-2-2A20.829,20.829,0,0,1,0,7.153a21.221,21.221,0,0,1,.336-4.23v0A2.9,2.9,0,0,1,2.331.91l.007,0A50.467,50.467,0,0,1,9.174.5h.01a48.5,48.5,0,0,1,6.842.424,2.838,2.838,0,0,1,1.995,1.993,20.207,20.207,0,0,1,.338,4.252,20.887,20.887,0,0,1-.336,4.192v0a2.839,2.839,0,0,1-2,2h0a50.511,50.511,0,0,1-6.835.409H9.179ZM1.722,3.291a20.521,20.521,0,0,0-.288,3.852v.019a19.283,19.283,0,0,0,.289,3.817,1.4,1.4,0,0,0,.985.982,48.017,48.017,0,0,0,6.472.374,49.963,49.963,0,0,0,6.474-.361,1.4,1.4,0,0,0,.983-.981,19.349,19.349,0,0,0,.288-3.817c0-.008,0-.015,0-.023A18.676,18.676,0,0,0,16.637,3.3v0a1.4,1.4,0,0,0-.985-.984,47.837,47.837,0,0,0-6.472-.374,50.03,50.03,0,0,0-6.472.36,1.439,1.439,0,0,0-.985,1Zm15.606,7.887h0ZM7.351,10.04V4.23l5.021,2.905Zm0,0" transform="translate(0.002 -0.5)" fill="#584c48"/>
</svg>
