<svg id="Group_4856" data-name="Group 4856" xmlns="http://www.w3.org/2000/svg" width="16" height="16.164" viewBox="0 0 16 16.164">
  <rect id="Rectangle_2057" data-name="Rectangle 2057" width="16" height="16" transform="translate(0 0.164)" fill="#c26046" opacity="0"/>
  <path id="phone" d="M1.885,16A1.881,1.881,0,0,1,0,14.121V11.6A1.874,1.874,0,0,1,1.662,9.73a9.153,9.153,0,0,0,1.647-.341,1.878,1.878,0,0,1,1.882.464l1.022,1.022a11.79,11.79,0,0,0,4.662-4.662L9.853,5.191a1.878,1.878,0,0,1-.464-1.882A9.153,9.153,0,0,0,9.73,1.662,1.874,1.874,0,0,1,11.6,0h2.523a1.882,1.882,0,0,1,1.872,2.057,15.306,15.306,0,0,1-1.426,5.2,15.424,15.424,0,0,1-3.028,4.285,15.422,15.422,0,0,1-4.285,3.028,15.312,15.312,0,0,1-5.2,1.426Q1.971,16,1.885,16Zm1.981-5.445a.653.653,0,0,0-.191.029,10.4,10.4,0,0,1-1.872.388.625.625,0,0,0-.552.625v2.523a.62.62,0,0,0,.2.464.628.628,0,0,0,.488.163A14.166,14.166,0,0,0,14.748,1.942a.63.63,0,0,0-.163-.488.621.621,0,0,0-.464-.2H11.6a.625.625,0,0,0-.625.552,10.4,10.4,0,0,1-.388,1.872.63.63,0,0,0,.152.632L12.4,5.972l-.2.4A13.03,13.03,0,0,1,6.374,12.2l-.4.2L4.307,10.737a.623.623,0,0,0-.442-.181Zm0,0" transform="translate(16 0) rotate(90)" fill="#c26046"/>
</svg>
