<svg xmlns="http://www.w3.org/2000/svg" width="14" height="14" viewBox="0 0 14 14">
  <g id="Group_4858" data-name="Group 4858" transform="translate(0 -0.164)">
    <rect id="Rectangle_2058" data-name="Rectangle 2058" width="14" height="14" transform="translate(0 0.164)" fill="#f6eddc" opacity="0"/>
    <g id="linkedin" transform="translate(0.933 0.912)">
      <path id="Path_4" data-name="Path 4" d="M1.471-.668A1.357,1.357,0,0,0,0,.684,1.346,1.346,0,0,0,1.437,2.036h.017a1.356,1.356,0,1,0,.017-2.7Zm0,0" transform="translate(0 0.668)" fill="#f6eddc"/>
      <path id="Path_5" data-name="Path 5" d="M8.109,198.313h2.6v7.826h-2.6Zm0,0" transform="translate(-7.956 -194.54)" fill="#f6eddc"/>
      <path id="Path_6" data-name="Path 6" d="M226.16,188.625a3.259,3.259,0,0,0-2.344,1.319v-1.135h-2.6v7.826h2.6v-4.37a1.783,1.783,0,0,1,.086-.635,1.424,1.424,0,0,1,1.335-.951c.941,0,1.318.718,1.318,1.77v4.186h2.6v-4.487c0-2.4-1.283-3.522-2.994-3.522Zm0,0" transform="translate(-217.021 -185.036)" fill="#f6eddc"/>
    </g>
  </g>
</svg>
