<svg xmlns="http://www.w3.org/2000/svg" width="16.5" height="16.5" viewBox="0 0 16.5 16.5">
  <g id="search" transform="translate(0.25 0.25)">
    <g id="Group_4560" data-name="Group 4560">
      <g id="Group_4559" data-name="Group 4559">
        <path id="Path_3083" data-name="Path 3083" d="M7.046,0a7.046,7.046,0,1,0,7.046,7.046A7.054,7.054,0,0,0,7.046,0Zm0,12.791a5.745,5.745,0,1,1,5.745-5.745A5.752,5.752,0,0,1,7.046,12.791Z" fill="#c26046" stroke="#c26046" stroke-width="0.5"/>
      </g>
    </g>
    <g id="Group_4562" data-name="Group 4562" transform="translate(10.97 10.97)">
      <g id="Group_4561" data-name="Group 4561">
        <path id="Path_3084" data-name="Path 3084" d="M355.885,354.965l-3.729-3.729a.65.65,0,0,0-.92.92l3.729,3.729a.65.65,0,0,0,.92-.92Z" transform="translate(-351.046 -351.046)" fill="#c26046" stroke="#c26046" stroke-width="0.5"/>
      </g>
    </g>
  </g>
</svg>
