<svg id="student" xmlns="http://www.w3.org/2000/svg" width="21.981" height="26.172" viewBox="0 0 21.981 26.172">
  <path id="Path_30" data-name="Path 30" d="M62.975,16.869a2.56,2.56,0,0,0-2.045-2.5V11.6a.767.767,0,0,0-1.036-.718l-1.463.549a8.939,8.939,0,0,0-3.409-2.214,5.112,5.112,0,1,0-6.074,0,8.94,8.94,0,0,0-3.409,2.214l-1.463-.549a.767.767,0,0,0-1.036.718v2.761a2.556,2.556,0,0,0,0,5.009v2.965a.767.767,0,0,0,.5.718l8.179,3.067a.775.775,0,0,0,.538,0l8.179-3.067a.767.767,0,0,0,.5-.718V19.373A2.56,2.56,0,0,0,62.975,16.869ZM48.406,5.112A3.578,3.578,0,1,1,51.984,8.69,3.582,3.582,0,0,1,48.406,5.112Zm3.578,5.112a7.4,7.4,0,0,1,4.851,1.809l-4.851,1.819-4.851-1.819A7.4,7.4,0,0,1,51.984,10.224Zm-9.457,6.645a1.024,1.024,0,0,1,1.022-1.022h.511v2.045H43.55A1.024,1.024,0,0,1,42.528,16.869Zm2.045,2.53a1.28,1.28,0,0,0,1.022-1.252V15.591a1.28,1.28,0,0,0-1.022-1.252V12.71L51.218,15.2v9.1l-6.645-2.492Zm8.179,4.9V15.2L59.4,12.71v1.629a1.28,1.28,0,0,0-1.022,1.252v2.556A1.28,1.28,0,0,0,59.4,19.4v2.408Zm7.668-6.408h-.511V15.846h.511a1.022,1.022,0,1,1,0,2.045Z" transform="translate(-40.994)" fill="#c26046"/>
</svg>
